<mxfile host="app.diagrams.net" modified="2023-12-18T12:17:17.595Z" agent="Mozilla/5.0 (Windows NT 10.0; Win64; x64) AppleWebKit/537.36 (KHTML, like Gecko) Chrome/118.0.5993.731 YaBrowser/23.11.1.731 Yowser/2.5 Safari/537.36" etag="QzIgwF95zLFE13KejTGg" version="22.1.11" type="github">
  <diagram name="Страница — 1" id="95dfs9ff0Wd2YRVwgPRh">
    <mxGraphModel dx="1756" dy="529" grid="0" gridSize="10" guides="1" tooltips="1" connect="1" arrows="1" fold="1" page="0" pageScale="1" pageWidth="827" pageHeight="1169" math="0" shadow="0">
      <root>
        <mxCell id="0" />
        <mxCell id="1" parent="0" />
        <mxCell id="uwdhekw9rvC6qfYLKvx_-8" style="edgeStyle=orthogonalEdgeStyle;rounded=0;orthogonalLoop=1;jettySize=auto;html=1;entryX=0;entryY=0.5;entryDx=0;entryDy=0;" parent="1" source="uwdhekw9rvC6qfYLKvx_-1" target="uwdhekw9rvC6qfYLKvx_-3" edge="1">
          <mxGeometry relative="1" as="geometry" />
        </mxCell>
        <mxCell id="uwdhekw9rvC6qfYLKvx_-1" value="Пользователь" style="shape=umlActor;verticalLabelPosition=bottom;verticalAlign=top;html=1;outlineConnect=0;" parent="1" vertex="1">
          <mxGeometry x="-726" y="328" width="30" height="60" as="geometry" />
        </mxCell>
        <mxCell id="uwdhekw9rvC6qfYLKvx_-9" style="edgeStyle=orthogonalEdgeStyle;rounded=0;orthogonalLoop=1;jettySize=auto;html=1;exitX=1;exitY=0.5;exitDx=0;exitDy=0;entryX=0;entryY=0.5;entryDx=0;entryDy=0;" parent="1" source="uwdhekw9rvC6qfYLKvx_-3" target="uwdhekw9rvC6qfYLKvx_-4" edge="1">
          <mxGeometry relative="1" as="geometry" />
        </mxCell>
        <mxCell id="uwdhekw9rvC6qfYLKvx_-3" value="Запуск" style="ellipse;whiteSpace=wrap;html=1;" parent="1" vertex="1">
          <mxGeometry x="-626" y="333" width="100" height="50" as="geometry" />
        </mxCell>
        <mxCell id="uwdhekw9rvC6qfYLKvx_-4" value="Выбор склада" style="ellipse;whiteSpace=wrap;html=1;" parent="1" vertex="1">
          <mxGeometry x="-456" y="333" width="100" height="50" as="geometry" />
        </mxCell>
        <mxCell id="uwdhekw9rvC6qfYLKvx_-5" value="Сохранить данные&lt;br&gt;(после заполнения полей)" style="ellipse;whiteSpace=wrap;html=1;" parent="1" vertex="1">
          <mxGeometry x="41" y="328" width="170" height="60" as="geometry" />
        </mxCell>
        <mxCell id="uwdhekw9rvC6qfYLKvx_-11" value="Удаление указанной строки" style="ellipse;whiteSpace=wrap;html=1;" parent="1" vertex="1">
          <mxGeometry x="36" y="170" width="170" height="60" as="geometry" />
        </mxCell>
        <mxCell id="uwdhekw9rvC6qfYLKvx_-14" value="Редактирование" style="ellipse;whiteSpace=wrap;html=1;" parent="1" vertex="1">
          <mxGeometry x="36" y="486" width="170" height="60" as="geometry" />
        </mxCell>
        <mxCell id="QWrrYXYVFJ42WMiiCsQI-1" value="Склад Смартфоны" style="ellipse;whiteSpace=wrap;html=1;" vertex="1" parent="1">
          <mxGeometry x="-290" y="283" width="100" height="50" as="geometry" />
        </mxCell>
        <mxCell id="QWrrYXYVFJ42WMiiCsQI-3" value="Склад Велосипеды" style="ellipse;whiteSpace=wrap;html=1;" vertex="1" parent="1">
          <mxGeometry x="-290" y="383" width="100" height="50" as="geometry" />
        </mxCell>
        <mxCell id="QWrrYXYVFJ42WMiiCsQI-5" value="" style="endArrow=classic;html=1;rounded=0;entryX=0;entryY=0.5;entryDx=0;entryDy=0;exitX=1;exitY=0;exitDx=0;exitDy=0;" edge="1" parent="1" source="uwdhekw9rvC6qfYLKvx_-4" target="QWrrYXYVFJ42WMiiCsQI-1">
          <mxGeometry width="50" height="50" relative="1" as="geometry">
            <mxPoint x="-369" y="297" as="sourcePoint" />
            <mxPoint x="-650" y="494" as="targetPoint" />
          </mxGeometry>
        </mxCell>
        <mxCell id="QWrrYXYVFJ42WMiiCsQI-10" value="" style="endArrow=classic;html=1;rounded=0;entryX=0;entryY=0.5;entryDx=0;entryDy=0;exitX=1;exitY=1;exitDx=0;exitDy=0;" edge="1" parent="1" source="uwdhekw9rvC6qfYLKvx_-4" target="QWrrYXYVFJ42WMiiCsQI-3">
          <mxGeometry width="50" height="50" relative="1" as="geometry">
            <mxPoint x="-362" y="500" as="sourcePoint" />
            <mxPoint x="-208" y="561" as="targetPoint" />
          </mxGeometry>
        </mxCell>
      </root>
    </mxGraphModel>
  </diagram>
</mxfile>
